# xmcd
#
# Track frame offsets:
#	150
#	2346
#	7269
#	16176
#	23285
#	27487
#	31826
#	38041
#	44205
#	50113
#	55561
#	59358
#	62878
#	67909
#	72125
#	82204
#	86918
#	90932
#	99268
#	103382
#	106637
#	112320
#	116431
#	120228
#	125234
#	128856
#	133254
#	137585
#	140849
#	144523
#	148875
#	156224
#	161764
#	165043
#	169623
#	173399
#	176914
#	185020
#	189381
#	197879
#	204759
#	211998
#	217773
#	222414
#	226006
#	230228
#	234799
#	244251
#	249562
#	253702
#	258814
#	269286
#	272518
#	280813
#	283614
#	291872
#
# Disc length: 3932 seconds
#
# Revision: 0
# Processed by: cddbd v1.5.2PL0 Copyright (c) Steve Scherf et al.
# Submitted via: EasyCDDAExtractor 12.0.0.1
#
DISCID=2d0f5a38
DTITLE=Oxford University Press - Happy House 2
DYEAR=2003
DGENRE=Speech
TTITLE0=Listening 1 - pp 2-3 Happy House Song
TTITLE1=Listening 2 - Introductory Unit
TTITLE2=Listening 3
TTITLE3=Listening 4 - Unit 1
TTITLE4=Listening 5
TTITLE5=Listening 6 - Song: On Safari
TTITLE6=Listening 7 - Mouse Story
TTITLE7=Listening 8 - Activity Book
TTITLE8=Listening 9 - Song: Can you snap
TTITLE9=Listening 10 - Human Story
TTITLE10=Listening 11 - Test 1
TTITLE11=Listening 12 - Unit 2
TTITLE12=Listening 13
TTITLE13=Listening 14 - Song: Clock Song
TTITLE14=Listening 15 - Mouse Story
TTITLE15=Listening 16 - Activity Book
TTITLE16=Listening 17 - Song: Clock Song
TTITLE17=Listening 18 - Human Story
TTITLE18=Listening 19 - Test 2
TTITLE19=Listening 20 - Unit 3
TTITLE20=Listening 21
TTITLE21=Listening 22 - Song: Helping Man
TTITLE22=Listening 23 - Mouse Story
TTITLE23=Listening 24 - Activity Book
TTITLE24=Listening 25 - Chant: I Don't Like ...
TTITLE25=Listening 26 - Human Story
TTITLE26=Listening 27 - Test 3
TTITLE27=Listening 28 - Unti 4
TTITLE28=Listening 29
TTITLE29=Listening 30 - Song: It's Me!
TTITLE30=Listening 31 - Mouse Story
TTITLE31=Listening 32 - Activity Book
TTITLE32=Listening 33 - Chant: I've Got Brown Hair ...
TTITLE33=Listening 34 - Human Story
TTITLE34=Listening 35 - Test 4
TTITLE35=Listening 36 - Unit 5
TTITLE36=Listening 37
TTITLE37=Listening 38 - Song: It's Lunchtime!
TTITLE38=Listening 39 - Mouse Story
TTITLE39=Listening 40 - Activity Book
TTITLE40=Listening 41 - Chant: Where's My ...
TTITLE41=Listening 42 - Human Story
TTITLE42=Listening 43 - Test 5
TTITLE43=Listening 44 - Unit 6
TTITLE44=Listening 45
TTITLE45=Listening 46 - Song: Summer Song
TTITLE46=Listening 47 - Mouse Story
TTITLE47=Listening 48 - Activity Book
TTITLE48=Listening 49 - Test 6
TTITLE49=Listening 50 - Goodbye!
TTITLE50=Listening 51 - Song: Holiday Song
TTITLE51=Listening 52 - Christmas Play
TTITLE52=Listening 53 - Christmas Song
TTITLE53=Listening 54 - Easter Play
TTITLE54=Listening 55 - Easter Song
TTITLE55=Listening 56
EXTD=
EXTT0=
EXTT1=
EXTT2=
EXTT3=
EXTT4=
EXTT5=
EXTT6=
EXTT7=
EXTT8=
EXTT9=
EXTT10=
EXTT11=
EXTT12=
EXTT13=
EXTT14=
EXTT15=
EXTT16=
EXTT17=
EXTT18=
EXTT19=
EXTT20=
EXTT21=
EXTT22=
EXTT23=
EXTT24=
EXTT25=
EXTT26=
EXTT27=
EXTT28=
EXTT29=
EXTT30=
EXTT31=
EXTT32=
EXTT33=
EXTT34=
EXTT35=
EXTT36=
EXTT37=
EXTT38=
EXTT39=
EXTT40=
EXTT41=
EXTT42=
EXTT43=
EXTT44=
EXTT45=
EXTT46=
EXTT47=
EXTT48=
EXTT49=
EXTT50=
EXTT51=
EXTT52=
EXTT53=
EXTT54=
EXTT55=
PLAYORDER=
